<?xml version="1.0" standalone="no"?>
<!DOCTYPE svg PUBLIC "-//W3C//DTD SVG 20010904//EN"
 "http://www.w3.org/TR/2001/REC-SVG-20010904/DTD/svg10.dtd">
<svg version="1.0" xmlns="http://www.w3.org/2000/svg"
 width="512.000000pt" height="512.000000pt" viewBox="0 0 512.000000 512.000000"
 preserveAspectRatio="xMidYMid meet">
<metadata>
Created by potrace 1.14, written by Peter Selinger 2001-2017
</metadata>
<g transform="translate(0.000000,512.000000) scale(0.100000,-0.100000)"
fill="#000000" stroke="none">
<path d="M2825 4163 c-38 -7 -105 -21 -147 -30 -70 -15 -82 -15 -140 0 -67 16
-98 8 -54 -15 l27 -14 -58 -45 c-98 -77 -315 -268 -370 -328 -42 -45 -54 -53
-62 -41 -32 48 -41 -51 -41 -455 l0 -380 -76 -50 c-42 -28 -99 -75 -128 -105
-55 -60 -70 -68 -191 -101 -44 -12 -91 -27 -105 -34 -34 -17 -159 -25 -153 -9
2 6 -21 26 -53 44 l-57 33 23 17 23 18 -44 32 c-24 17 -43 38 -41 45 3 17 -31
29 -58 20 -28 -9 -25 -21 10 -34 72 -25 7 -41 -167 -41 -98 0 -104 -1 -112
-22 -7 -19 -98 -140 -119 -158 -11 -10 13 27 60 92 26 37 48 70 48 73 0 21
-33 -13 -118 -122 -119 -155 -172 -232 -172 -254 0 -9 -34 -60 -75 -113 -41
-54 -84 -113 -95 -131 -29 -47 -16 -64 21 -29 16 15 41 29 56 30 l28 3 -35
-32 c-19 -17 -40 -41 -46 -53 -10 -19 -8 -26 17 -50 16 -15 60 -90 97 -166 37
-75 73 -138 80 -138 18 0 11 19 -44 131 -25 50 -43 93 -41 96 3 2 33 -31 67
-74 66 -84 187 -200 198 -189 3 4 1 16 -6 26 -7 11 -8 20 -3 20 16 0 29 -24
33 -59 4 -40 28 -56 28 -19 0 13 4 28 9 34 5 5 0 29 -15 59 -13 28 -23 59 -23
70 0 17 5 14 29 -15 34 -41 38 -35 11 19 -19 35 -81 236 -95 307 -7 30 -4 33
55 68 34 20 64 35 66 32 2 -2 -3 -28 -11 -56 -9 -29 -13 -58 -9 -64 3 -6 -3
-2 -15 8 -12 11 -24 17 -26 15 -2 -2 -2 -26 1 -52 5 -38 11 -50 27 -57 12 -4
35 -26 50 -49 16 -23 34 -41 41 -41 7 0 27 -3 44 -6 48 -10 39 14 -29 76 l-61
55 35 77 c19 42 38 93 42 113 3 20 13 39 21 42 9 4 12 14 9 32 -3 14 -2 33 4
41 7 11 10 7 10 -18 0 -21 4 -32 12 -30 15 5 35 63 60 180 15 72 24 95 34 91
17 -6 18 2 4 28 -15 27 -27 24 -35 -10 -8 -38 -31 -59 -30 -28 0 12 3 27 7 32
3 6 -14 36 -38 68 -59 79 -57 95 8 61 23 -12 28 -18 17 -24 -18 -12 -16 -13
70 -34 41 -10 106 -29 145 -42 39 -12 75 -19 81 -15 15 11 75 13 75 2 0 -17
45 -20 133 -8 93 13 117 34 32 29 -27 -2 -47 -1 -44 2 2 3 58 19 123 36 122
32 182 57 206 85 8 9 35 27 61 41 l48 24 -4 -73 c-12 -195 -14 -386 -5 -392 6
-4 10 25 10 81 0 138 11 90 16 -66 2 -77 6 -145 9 -151 9 -14 25 -11 25 5 0
25 17 27 67 5 70 -30 108 -28 147 10 18 17 41 31 52 31 30 0 58 25 59 50 0 13
9 28 20 34 11 6 54 43 95 81 42 39 100 90 130 115 l55 45 -34 -40 c-18 -22
-54 -59 -80 -82 -25 -23 -40 -42 -33 -43 18 0 182 168 182 186 0 26 -23 14
-92 -47 -37 -33 -68 -58 -68 -54 0 26 207 224 327 313 18 14 22 21 13 22 -9 0
-37 -18 -64 -40 -77 -63 -68 -46 18 36 62 59 83 73 100 68 11 -3 73 -25 136
-49 129 -48 306 -95 355 -95 18 0 38 -6 44 -14 7 -8 53 -24 102 -36 80 -19
118 -21 357 -20 192 1 290 5 350 16 46 9 87 14 92 12 5 -2 -79 -95 -187 -208
l-195 -205 -49 -3 c-29 -2 -49 1 -49 7 0 16 -151 1 -172 -17 -18 -15 -54 -9
-43 8 14 22 -8 31 -29 12 -11 -11 -30 -22 -41 -24 -11 -2 -20 -11 -20 -21 0
-18 -41 -56 -61 -57 -6 0 -21 -11 -34 -25 -13 -14 -31 -25 -40 -25 -26 0 -41
-97 -21 -129 7 -11 16 -1 35 42 21 48 29 57 51 57 38 0 56 12 94 64 38 50 80
64 83 26 0 -11 1 -26 2 -32 1 -7 -6 -13 -14 -13 -31 0 -20 -34 23 -70 33 -28
46 -47 51 -74 3 -20 9 -47 12 -61 5 -22 3 -20 -15 8 -49 76 -58 5 -15 -127 13
-42 24 -79 24 -82 0 -3 -11 -4 -25 -1 -18 3 -25 0 -25 -12 0 -9 5 -16 12 -16
8 0 9 -3 2 -10 -5 -5 -54 -11 -108 -12 -66 -2 -101 -7 -103 -15 -7 -19 58 -26
171 -18 l103 7 11 -29 c6 -15 28 -73 48 -128 20 -55 45 -117 56 -138 25 -49
19 -64 -14 -38 -27 21 -58 28 -58 12 0 -5 16 -19 35 -32 19 -13 35 -27 35 -30
0 -4 -21 -10 -47 -13 -141 -17 -160 -18 -204 -3 -74 25 -129 31 -129 14 0 -19
37 -34 113 -47 34 -6 109 -23 167 -38 l105 -28 14 -52 c16 -59 37 -72 27 -16
-4 19 -10 42 -13 50 -3 8 -1 14 5 14 11 0 19 -42 28 -150 l6 -75 -22 42 c-22
43 -47 60 -63 44 -11 -11 3 -115 22 -165 16 -41 19 -30 11 44 -4 36 -6 67 -4
68 5 6 30 -51 53 -116 13 -40 21 -87 21 -132 0 -89 17 -170 36 -170 17 0 19
69 5 170 -5 36 -6 146 -3 245 l7 180 33 1 c55 1 60 19 13 49 -22 15 -41 34
-41 42 0 22 29 265 35 290 4 16 12 22 27 20 57 -6 8 60 -62 83 l-45 15 53 3
c66 4 65 23 0 36 -51 10 -58 21 -58 89 0 54 -24 43 -28 -12 -3 -42 -4 -42 -39
-39 l-36 3 -28 110 c-29 112 -32 149 -10 107 17 -31 81 -102 92 -102 22 0 5
38 -31 74 -22 22 -38 41 -36 43 2 2 48 -18 102 -45 113 -57 233 -97 247 -83
28 28 194 -82 181 -121 -8 -28 5 -60 23 -54 8 3 13 3 11 -1 -17 -38 -72 -137
-124 -224 -76 -127 -138 -253 -132 -271 3 -7 24 25 48 69 25 45 46 80 48 78 2
-2 -13 -41 -34 -87 -74 -167 -164 -412 -164 -448 0 -8 -7 -28 -15 -43 -13 -25
-13 -30 0 -44 37 -36 71 20 149 242 62 175 87 237 93 231 2 -2 -19 -71 -47
-154 -27 -83 -50 -158 -50 -166 0 -44 29 0 106 160 90 186 152 355 185 504 10
50 25 100 32 112 9 15 9 22 1 25 -9 3 -8 17 3 51 16 53 13 188 -8 283 -11 48
-10 62 5 98 22 57 39 277 31 411 -7 112 -31 379 -41 445 l-6 40 54 12 c92 22
256 110 314 169 51 52 84 119 84 171 0 40 -36 128 -78 189 -54 81 -168 186
-238 220 -57 28 -64 29 -209 29 -139 0 -154 -2 -200 -24 -63 -32 -124 -93
-156 -156 -20 -42 -24 -64 -23 -140 0 -124 17 -253 38 -294 47 -90 165 -167
277 -180 32 -4 61 -10 65 -13 3 -4 3 -36 -1 -71 l-7 -65 -72 -7 c-39 -3 -111
-8 -161 -10 -89 -4 -277 -20 -345 -30 -19 -3 -103 -10 -187 -15 -141 -10 -154
-9 -170 7 -10 10 -66 33 -124 52 -96 31 -106 37 -96 52 6 10 9 20 6 23 -3 3
-76 24 -164 46 -87 23 -167 45 -177 51 -17 9 -19 18 -14 77 22 259 15 761 -11
770 -10 3 -13 -19 -13 -89 0 -51 -2 -90 -5 -87 -3 3 -6 52 -7 109 -1 138 9
162 96 218 36 24 66 50 66 57 0 22 -19 17 -70 -21 -48 -35 -66 -44 -55 -24 4
5 8 33 9 60 2 30 9 55 17 60 8 5 10 9 6 9 -5 0 1 12 12 26 23 30 27 63 9 68
-37 12 -80 11 -143 -1z m125 -28 c0 -8 -4 -15 -10 -15 -5 0 -10 7 -10 15 0 8
5 15 10 15 6 0 10 -7 10 -15z m-126 -16 c-10 -17 -70 -39 -104 -39 -27 0 -30
2 -17 14 26 26 136 49 121 25z m-275 -30 c-16 -10 -23 -4 -14 10 3 6 11 8 17
5 6 -4 5 -9 -3 -15z m331 6 c0 -8 -7 -15 -16 -15 -14 0 -14 3 -4 15 7 8 14 15
16 15 2 0 4 -7 4 -15z m-204 -60 c-11 -8 -31 -15 -44 -15 -21 0 -22 2 -12 15
7 8 27 15 44 15 29 -1 30 -1 12 -15z m109 1 c-42 -13 -59 -11 -35 4 8 6 29 9
45 9 28 -1 28 -1 -10 -13z m-245 -10 c0 -3 -4 -8 -10 -11 -5 -3 -10 -1 -10 4
0 6 5 11 10 11 6 0 10 -2 10 -4z m307 -23 c-3 -10 -8 -30 -11 -44 -4 -20 -39
-50 -143 -122 -159 -110 -333 -220 -338 -215 -6 6 236 193 250 193 7 0 28 15
47 33 174 170 205 194 195 155z m-239 -11 c-9 -22 -205 -189 -283 -241 l-50
-33 60 53 c33 29 101 93 150 141 50 48 98 88 108 88 10 0 17 -4 15 -8z m172 3
c0 -8 -179 -137 -242 -175 -32 -19 -92 -63 -134 -98 -71 -59 -77 -62 -90 -45
-7 10 -14 21 -14 25 0 4 51 42 113 84 61 43 148 105 192 139 44 34 87 64 95
68 19 7 80 9 80 2z m-331 -92 c-96 -92 -167 -151 -262 -218 -31 -22 -55 -46
-52 -52 3 -9 -6 -13 -25 -13 -17 0 -30 -4 -30 -10 0 -5 -7 -10 -15 -10 -8 0
-15 2 -15 5 0 9 75 74 85 75 6 0 16 9 23 21 7 11 18 18 25 16 7 -2 37 17 67
43 84 72 281 230 286 230 3 0 -36 -39 -87 -87z m161 53 c0 -2 -8 -10 -17 -17
-16 -13 -17 -12 -4 4 13 16 21 21 21 13z m200 -83 c0 -5 -15 -16 -33 -26 l-32
-17 30 25 c33 27 35 28 35 18z m-516 -54 c-16 -17 -38 -35 -49 -40 -11 -6 0 8
25 30 53 49 65 53 24 10z m502 -46 c-14 -82 -18 -153 -10 -153 5 0 10 -93 12
-207 2 -114 7 -256 10 -315 4 -60 6 -111 4 -113 -2 -2 -40 12 -85 30 -45 18
-97 39 -114 45 -37 14 -45 48 -17 71 13 11 14 9 9 -13 -5 -18 -2 -27 10 -32
12 -4 16 -2 12 8 -3 8 10 35 30 61 39 51 37 65 -7 48 l-30 -11 17 31 c8 18 35
66 59 108 24 42 44 81 44 87 0 21 -29 13 -46 -13 -11 -18 -22 -24 -35 -20 -14
5 -24 -6 -47 -52 l-30 -57 -7 52 c-4 35 -12 52 -21 52 -10 0 -14 -15 -14 -57
-1 -50 -2 -56 -14 -40 -24 31 -37 20 -31 -25 l6 -43 -43 48 c-49 52 -68 59
-68 23 0 -36 17 -76 33 -76 7 0 24 -11 37 -25 29 -31 21 -32 -30 -3 -44 26
-50 24 -43 -14 5 -27 27 -40 88 -54 48 -11 65 -54 21 -51 -35 3 -36 -15 -3
-31 20 -10 27 -20 27 -43 0 -36 25 -39 34 -3 5 18 12 24 24 20 9 -3 35 -10 57
-16 22 -6 55 -23 73 -39 l34 -29 -74 14 c-40 8 -78 16 -85 18 -19 8 -27 -14
-12 -28 8 -7 68 -28 134 -46 66 -19 121 -35 123 -36 2 -1 -79 -82 -178 -180
-231 -227 -319 -325 -335 -372 l-13 -37 -8 29 c-10 40 4 359 21 481 9 63 16
234 19 459 5 394 2 376 65 380 25 2 228 107 341 177 25 15 49 28 54 28 5 1 6
-16 2 -36z m-551 -79 c-17 -12 -18 -16 -5 -24 8 -5 11 -12 8 -16 -7 -7 -91
-24 -96 -20 -3 4 100 76 108 76 3 0 -4 -7 -15 -16z m2055 -38 c-55 -38 -145
-139 -171 -192 -13 -27 -25 -74 -27 -106 -3 -32 -10 -62 -17 -68 -32 -26 -29
128 3 210 18 44 71 109 111 134 67 42 159 62 101 22z m265 8 l40 -14 -44 6
c-48 5 -93 24 -56 23 11 0 38 -7 60 -15z m-120 -4 c-3 -5 -16 -10 -28 -10 -18
0 -19 2 -7 10 20 13 43 13 35 0z m-22 -60 c-56 -20 -138 -72 -146 -92 -3 -8
-6 -8 -6 -2 -2 22 45 79 79 96 19 10 55 18 80 17 l45 0 -52 -19z m235 -5 c70
-32 157 -120 173 -173 11 -38 10 -46 -12 -88 -32 -62 -49 -68 -42 -14 11 80
-18 125 -172 263 -33 30 -36 36 -20 37 11 0 44 -11 73 -25z m-95 -30 c26 -12
77 -78 77 -98 0 -3 -28 7 -62 21 -74 30 -169 34 -235 9 -74 -28 -46 11 41 57
57 30 130 35 179 11z m-2556 -17 c-3 -8 -6 -5 -6 6 -1 11 2 17 5 13 3 -3 4
-12 1 -19z m48 -38 c-4 -28 -9 -49 -12 -47 -2 3 -1 28 3 56 4 28 9 50 11 47 3
-3 2 -28 -2 -56z m170 -177 c4 -131 9 -321 10 -423 1 -102 5 -192 9 -201 3 -8
0 -55 -9 -103 -22 -131 -19 -196 10 -196 9 0 12 -20 11 -74 -1 -74 -1 -74 -30
-80 -85 -17 -176 6 -176 46 0 9 12 149 26 310 30 345 39 793 16 821 -9 11 -11
30 -7 64 10 74 9 73 73 73 l60 0 7 -237z m65 163 c0 -34 -3 -92 -7 -127 -8
-62 -8 -59 -13 56 -6 125 -5 135 11 135 5 0 9 -29 9 -64z m549 -275 c0 -96 -1
-172 -3 -170 -2 2 -5 110 -8 239 -2 129 -1 206 3 170 3 -36 7 -143 8 -239z
m1344 238 c-8 -31 -24 -66 -34 -80 -18 -23 -19 -23 -19 -3 0 20 59 148 65 142
2 -2 -3 -28 -12 -59z m43 -6 c-11 -11 -17 4 -9 23 7 18 8 18 11 1 2 -10 1 -21
-2 -24z m353 6 c70 -30 85 -49 78 -101 -6 -49 -42 -86 -117 -121 -68 -31 -201
-31 -252 1 l-38 24 0 78 c0 72 2 79 26 94 50 33 83 15 110 -59 7 -19 8 -19 11
2 5 26 -22 83 -39 83 -17 0 3 17 27 23 38 11 145 -2 194 -24z m158 -56 c8 -19
12 -37 10 -39 -7 -8 -28 23 -37 55 -12 42 7 30 27 -16z m180 -119 c7 -58 -28
-135 -86 -185 -51 -45 -199 -121 -274 -141 -44 -11 -50 -11 -62 5 -12 17 -13
16 -17 -1 -11 -42 -151 -34 -239 15 -101 55 -171 165 -154 242 9 40 18 39 33
-3 7 -18 21 -41 32 -51 11 -10 20 -26 20 -36 0 -10 11 -43 24 -72 20 -45 31
-58 70 -77 101 -48 265 1 411 125 141 119 194 192 196 267 l0 43 21 -45 c11
-25 22 -63 25 -86z m-191 45 c13 -27 14 -36 3 -56 -14 -26 -100 -102 -138
-123 -22 -11 -21 -8 10 28 18 22 50 72 69 111 19 39 36 71 37 71 1 0 10 -14
19 -31z m-585 -35 c-7 -31 -9 -34 -10 -12 -1 27 9 62 15 55 3 -2 0 -22 -5 -43z
m-2051 -31 c0 -26 -2 -44 -4 -42 -8 9 -13 98 -5 93 5 -3 9 -26 9 -51z m215
-142 c-5 -63 -10 -89 -16 -80 -10 14 -5 140 9 234 l7 50 3 -55 c2 -30 1 -97
-3 -149z m1920 59 c8 -24 13 -45 11 -47 -1 -1 -12 4 -24 13 -19 13 -22 24 -21
82 1 61 2 64 10 32 6 -19 16 -55 24 -80z m376 43 c-5 -10 -29 -37 -53 -60 -36
-35 -54 -45 -102 -54 -101 -18 -139 -2 -171 73 l-15 37 43 -19 c23 -11 64 -20
92 -20 59 0 157 24 188 45 27 19 30 19 18 -2z m-2584 -35 c-3 -8 -6 -5 -6 6
-1 11 2 17 5 13 3 -3 4 -12 1 -19z m2653 -43 c-26 -28 -126 -79 -175 -90 -40
-9 -22 7 31 28 22 8 67 31 100 51 71 42 74 43 44 11z m-385 -65 c3 -5 2 -10
-4 -10 -5 0 -13 5 -16 10 -3 6 -2 10 4 10 5 0 13 -4 16 -10z m110 -50 c107 -5
109 -6 70 -18 -64 -21 -150 -26 -185 -12 -26 11 -70 57 -70 74 0 3 17 -5 38
-17 30 -18 57 -23 147 -27z m-1745 -5 c31 -18 16 -18 -30 0 -23 9 -28 14 -15
14 11 0 31 -6 45 -14z m-350 -172 c-10 -16 -11 -15 -6 7 3 14 7 36 7 50 2 19
3 18 6 -7 2 -18 -1 -41 -7 -50z m865 -18 c30 -10 34 -13 15 -13 -14 0 -47 8
-75 19 -40 15 -43 18 -15 13 19 -4 53 -12 75 -19z m1327 -40 c3 -14 1 -25 -3
-25 -5 0 -9 11 -9 25 0 14 2 25 4 25 2 0 6 -11 8 -25z m-2512 -14 c0 -25 -7
-32 -57 -57 -84 -42 -84 -41 -13 25 36 33 66 61 68 61 1 0 2 -13 2 -29z m2534
-221 c4 -65 3 -82 -3 -55 -5 22 -11 83 -14 135 -4 66 -3 83 3 55 5 -22 11 -83
14 -135z m-297 154 c-3 -3 -12 -4 -19 -1 -8 3 -5 6 6 6 11 1 17 -2 13 -5z
m188 -14 c-3 -5 -30 -9 -58 -9 -45 1 -48 2 -22 9 45 11 87 11 80 0z m-3187
-24 c11 -8 10 -11 -5 -17 -10 -3 -26 -2 -36 3 -14 7 -15 11 -5 22 13 14 21 12
46 -8z m-315 -45 c-2 -11 2 -21 7 -21 5 0 21 -21 34 -47 13 -27 36 -65 50 -86
28 -41 28 -94 -1 -83 -9 4 -23 -11 -41 -41 -34 -58 -45 -68 -112 -98 -30 -14
-46 -18 -36 -10 29 22 10 32 -22 12 -48 -31 -282 -147 -282 -140 0 15 33 41
45 37 8 -4 46 38 98 108 47 62 102 124 121 137 35 23 46 41 27 41 -6 0 -13 -4
-16 -10 -3 -5 -10 -10 -16 -10 -5 0 6 21 24 48 32 47 35 54 45 102 6 31 53 91
67 86 6 -2 9 -13 8 -25z m252 3 c49 -14 131 -61 122 -70 -11 -11 -217 69 -217
85 0 10 15 7 95 -15z m3040 17 c-22 -4 -80 -7 -130 -7 -87 -1 -88 -1 -25 6 36
3 94 7 130 7 54 0 58 -1 25 -6z m175 -113 c-32 -26 -38 -13 -9 18 15 16 25 21
28 13 2 -7 -6 -21 -19 -31z m46 -333 c-8 -8 -16 -15 -18 -15 -3 0 17 300 24
360 1 14 4 -55 5 -153 3 -145 1 -181 -11 -192z m-30 268 c-13 -88 -18 -458 -7
-498 14 -50 27 -255 16 -255 -18 0 -75 52 -75 70 0 11 -17 28 -43 44 -24 14
-73 51 -108 83 -98 88 -149 128 -210 162 -63 35 -79 38 -79 14 0 -26 77 -92
203 -172 110 -69 151 -101 131 -101 -22 0 -119 60 -224 139 -63 48 -150 108
-193 135 -42 26 -80 52 -83 57 -3 5 15 9 40 9 38 0 44 -3 39 -16 -5 -13 -2
-15 18 -9 64 21 94 24 107 11 11 -11 20 -10 50 5 20 11 50 19 67 19 16 0 36 4
44 9 18 12 3 34 -17 26 -13 -5 -12 -1 4 17 11 13 44 53 74 91 29 37 59 67 66
67 7 0 22 12 34 27 20 26 125 101 144 102 4 1 6 -16 2 -36z m113 -153 c0 -23
-1 -23 -9 -5 -5 11 -9 31 -9 45 0 23 1 23 9 5 5 -11 9 -31 9 -45z m-3523 22
c-18 -16 -18 -16 -6 6 6 13 14 21 18 18 3 -4 -2 -14 -12 -24z m3524 -124 c0
-28 -2 -49 -5 -46 -8 8 -23 97 -17 102 13 14 22 -10 22 -56z m-3890 32 c-6
-11 -13 -20 -16 -20 -2 0 0 9 6 20 6 11 13 20 16 20 2 0 0 -9 -6 -20z m1499
-15 c30 -11 32 -13 14 -19 -24 -8 -70 11 -78 31 -4 11 -1 13 12 8 10 -4 33
-13 52 -20z m146 -5 c-3 -5 -12 -7 -20 -3 -21 7 -19 13 6 13 11 0 18 -4 14
-10z m-1390 -25 c-16 -13 -42 -29 -57 -35 -14 -7 -28 -20 -31 -31 -7 -27 -53
-26 -60 2 -6 22 -5 23 103 63 81 31 81 31 45 1z m3620 -55 c9 -10 11 -31 8
-63 -8 -68 -24 -45 -29 40 -2 37 -1 61 2 53 4 -8 12 -22 19 -30z m-2310 0 c18
-8 17 -9 -7 -9 -15 -1 -30 4 -33 9 -7 12 12 12 40 0z m-1480 -17 c3 -10 1 -19
-4 -21 -15 -5 -14 -32 1 -32 6 0 1 -11 -11 -24 -23 -24 -16 -41 12 -30 11 4
19 -8 32 -46 9 -28 15 -54 12 -56 -3 -3 -10 11 -17 30 -6 20 -18 36 -26 36 -8
0 -14 -1 -14 -3 0 -2 20 -63 45 -135 25 -72 45 -137 45 -144 0 -7 -26 15 -58
49 -75 81 -171 163 -191 163 -16 0 -71 48 -71 63 0 5 12 19 27 31 33 26 196
134 204 135 4 1 10 -7 14 -16z m3702 -60 c-3 -10 -5 -2 -5 17 0 19 2 27 5 18
2 -10 2 -26 0 -35z m-3917 23 c0 -2 -7 -7 -16 -10 -8 -3 -12 -2 -9 4 6 10 25
14 25 6z m3367 -83 c62 -39 231 -159 248 -175 18 -17 -79 26 -184 81 -96 51
-131 83 -131 121 0 15 4 13 67 -27z m183 -19 c0 -3 -13 4 -30 16 -16 12 -30
24 -30 26 0 3 14 -4 30 -16 17 -12 30 -24 30 -26z m466 -183 c4 -43 3 -100 0
-126 l-8 -48 -20 21 c-19 18 -20 25 -9 84 6 36 11 94 12 129 0 85 16 49 25
-60z m-686 -134 c0 -5 -7 -7 -17 -5 -16 3 -62 114 -62 148 0 15 78 -127 79
-143z m29 -81 c12 -15 85 -285 78 -292 -5 -5 -96 237 -104 277 -6 31 7 38 26
15z m91 -59 l-1 -32 -19 35 c-25 45 -25 53 0 40 14 -7 20 -21 20 -43z m544
-14 c-20 -68 -24 -77 -30 -70 -10 10 19 117 32 117 9 0 9 -11 -2 -47z m-469
-5 c17 -8 24 -17 20 -27 -6 -15 -23 -132 -26 -176 -2 -34 -16 46 -24 133 -3
45 -4 82 -1 82 3 0 17 -5 31 -12z m405 -70 c-31 -104 -90 -221 -105 -206 -6 6
25 83 55 139 11 20 20 44 20 53 0 21 40 100 46 93 3 -3 -4 -38 -16 -79z m-28
-239 c-34 -90 -94 -221 -99 -216 -5 6 86 246 104 274 26 39 24 21 -5 -58z
m-425 19 c-3 -8 -6 -5 -6 6 -1 11 2 17 5 13 3 -3 4 -12 1 -19z m-77 -58 c0
-23 -18 -25 -75 -8 l-40 12 50 7 c28 3 53 7 58 7 4 1 7 -7 7 -18z m46 -27
c-12 -12 -29 15 -21 34 7 17 8 16 18 -5 5 -12 7 -25 3 -29z m44 5 c0 -16 -3
-19 -11 -11 -6 6 -8 16 -5 22 11 17 16 13 16 -11z m9 -90 c-1 -37 -2 -39 -9
-18 -12 36 -12 60 0 60 6 0 10 -19 9 -42z"/>
<path d="M2140 2298 c-22 -10 -23 -12 -6 -15 10 -3 26 2 34 11 19 18 8 20 -28
4z"/>
<path d="M4380 3323 c0 -5 9 -18 20 -28 11 -10 20 -14 20 -8 0 5 -9 18 -20 28
-11 10 -20 14 -20 8z"/>
<path d="M810 3411 c-114 -37 -214 -121 -265 -224 -31 -62 -35 -78 -35 -148 0
-49 4 -79 11 -79 6 0 8 8 4 20 -10 31 14 139 45 199 38 76 99 134 183 176 58
29 80 35 131 34 l61 -1 -74 -19 c-41 -10 -93 -30 -117 -44 -116 -68 -211 -253
-184 -357 7 -23 27 -57 45 -75 18 -18 35 -46 39 -64 14 -72 100 -132 157 -111
69 27 129 110 129 180 0 29 8 50 31 78 61 77 109 208 109 298 0 44 -36 95 -85
120 -43 22 -142 31 -185 17z m173 -83 c12 -6 27 -18 34 -27 16 -23 26 -82 15
-93 -6 -6 -12 3 -16 23 -3 17 -23 49 -45 70 -38 38 -33 51 12 27z m-43 -38
c41 -32 67 -102 55 -146 -7 -24 -9 -26 -13 -9 -2 11 -14 31 -25 43 -19 21 -28
23 -74 18 -35 -4 -53 -2 -55 6 -2 6 -18 11 -36 10 -29 -1 -31 1 -21 20 6 11
27 37 46 59 41 45 65 45 123 -1z m-205 -69 c-23 -47 -45 -72 -45 -53 0 10 60
102 66 102 2 0 -7 -22 -21 -49z m-87 -88 c-16 -43 -36 -96 -44 -118 l-14 -40
4 52 c3 29 13 70 22 90 17 38 52 93 59 93 1 0 -10 -35 -27 -77z m172 48 c0 -4
-18 -20 -40 -37 -42 -31 -56 -52 -42 -66 4 -4 18 5 30 22 13 16 29 30 37 30 8
0 24 9 36 21 14 14 30 19 56 17 42 -4 59 -24 49 -63 -6 -23 -11 -26 -34 -21
-15 3 -50 9 -78 12 -48 6 -53 5 -64 -17 -24 -45 -50 -51 -49 -11 1 51 24 106
48 118 23 12 51 9 51 -5z m-137 -207 l-18 -27 -6 30 c-8 41 4 117 22 139 23
29 26 -106 2 -142z m150 99 c-7 -2 -19 -2 -25 0 -7 3 -2 5 12 5 14 0 19 -2 13
-5z m66 -19 c2 -2 2 -7 -2 -10 -3 -3 -16 2 -29 11 l-23 17 25 -7 c14 -4 27 -9
29 -11z m-45 -17 c15 -11 12 -12 -24 -12 -26 0 -40 4 -40 12 0 7 10 13 23 13
13 0 31 -6 41 -13z m-102 -29 c-7 -7 -12 -8 -12 -2 0 14 12 26 19 19 2 -3 -1
-11 -7 -17z m93 -8 c-3 -5 -15 -10 -26 -10 -10 0 -19 5 -19 10 0 6 12 10 26
10 14 0 23 -4 19 -10z m-51 -25 c16 -12 17 -18 8 -27 -15 -15 -45 0 -50 26 -4
20 16 20 42 1z m-54 -45 c0 -5 -4 -10 -10 -10 -5 0 -10 5 -10 10 0 6 5 10 10
10 6 0 10 -4 10 -10z m164 -92 c-21 -43 -52 -76 -87 -95 -23 -11 -35 -12 -62
-3 -41 13 -85 63 -85 93 1 21 2 21 25 -5 46 -53 145 -25 200 58 19 28 20 28
23 7 2 -12 -4 -37 -14 -55z m-89 -4 c-27 -20 -61 -28 -82 -19 -13 6 -5 10 30
16 27 4 52 10 55 13 3 3 8 6 11 6 3 0 -3 -7 -14 -16z"/>
</g>
</svg>
